<svg xmlns="http://www.w3.org/2000/svg" viewBox="0 0 64 64" fill="none">
  <path d="M32 56C32 56 20 48 18 40C16 32 18 24 24 18C28 14 32 8 32 8C32 8 36 14 40 18C46 24 48 32 46 40C44 48 32 56 32 56Z" stroke="#2a9d8f" stroke-width="2.5" fill="white"/>
  <path d="M24 28C24 28 28 32 32 32C36 32 40 28 40 28" stroke="#2a9d8f" stroke-width="2" stroke-linecap="round"/>
  <line x1="32" y1="32" x2="32" y2="42" stroke="#2a9d8f" stroke-width="2" stroke-linecap="round"/>
  <line x1="28" y1="38" x2="36" y2="38" stroke="#2a9d8f" stroke-width="2" stroke-linecap="round"/>
</svg>