<svg xmlns="http://www.w3.org/2000/svg" viewBox="0 0 200 60" fill="none">
  <path d="M18 8C10 8 6 13 6 20C6 25 9 28 11 32C13 36 13 40 13 44C13 48 15 52 20 52C25 52 27 48 27 44C27 40 27 36 29 32C31 28 34 25 34 20C34 13 30 8 22 8H18Z" fill="#2a9d8f"/>
  <rect x="8" y="18" width="6" height="2" rx="1" fill="white"/>
  <rect x="28" y="18" width="6" height="2" rx="1" fill="white"/>
  <rect x="16" y="22" width="8" height="2" rx="1" fill="white"/>
  <path d="M12 28H28" stroke="white" stroke-width="1.5" stroke-linecap="round"/>
  <text x="46" y="36" font-family="Arial, Helvetica, sans-serif" font-size="22" font-weight="700" fill="#264653">Nuba</text>
  <text x="46" y="52" font-family="Arial, Helvetica, sans-serif" font-size="14" fill="#2a9d8f" letter-spacing="2">DENTAL</text>
</svg>